PathFileType	4	(X/Y/Z)	DARI_DATA/Captury_Subj6_bilateral_squat02.trc
DataRate	CameraRate	NumFrames	NumMarkers	Units	OrigDataRate	OrigDataStartFrame	OrigNumFrames
60	60	6	47	mm	59.99879837036133	26	204
Frame#	Time		LeftUpLeg_		RightUpLeg_		LeftLeg_		RightLeg_		LeftFoot_		RightFoot_		LeftToeBase_		RightToeBase_		Knee_Lateral_r		Knee_Lateral_l		Ankle_Lateral_r		Ankle_Lateral_l		LeftArm_		LeftForeArm_		LeftHand_		LeftHandEE		RightArm_		RightForeArm_		RightHand_		RightHandEE		Spine_		Spine1_		Spine2_		Spine3_		Spine4_		Spine5_		Spine_x		Spine_y		Spine_z		RASI		LASI		RIPS		LIPS		RTHI		LTHI		RTIB		LTIB		RTOE		LTOE		RHEE		LHEE		RHipAngles		LHipAngles		RKneeAngles		LKneeAngles		RAnkleAngles		LAnkleAngles
			X1	Y1	Z1	X2	Y2	Z2	X3	Y3	Z3	X4	Y4	Z4	X5	Y5	Z5	X6	Y6	Z6	X7	Y7	Z7	X8	Y8	Z8	X9	Y9	Z9	X10	Y10	Z10	X11	Y11	Z11	X12	Y12	Z12	X13	Y13	Z13	X14	Y14	Z14	X15	Y15	Z15	X16	Y16	Z16	X17	Y17	Z17	X18	Y18	Z18	X19	Y19	Z19	X20	Y20	Z20	X21	Y21	Z21	X22	Y22	Z22	X23	Y23	Z23	X24	Y24	Z24	X25	Y25	Z25	X26	Y26	Z26	X27	Y27	Z27	X28	Y28	Z28	X29	Y29	Z29	X30	Y30	Z30	X31	Y31	Z31	X32	Y32	Z32	X33	Y33	Z33	X34	Y34	Z34	X35	Y35	Z35	X36	Y36	Z36	X37	Y37	Z37	X38	Y38	Z38	X39	Y39	Z39	X40	Y40	Z40	X41	Y41	Z41	X42	Y42	Z42	X43	Y43	Z43	X44	Y44	Z44	X45	Y45	Z45	X46	Y46	Z46	X47	Y47	Z47

26	0.41667	-81.13316	1002.10199	12.61577	115.70342	1008.24109	19.85972	-150.67480	526.86969	19.34282	170.15088	531.06317	27.84727	-202.79288	89.16696	70.29143	214.08247	92.55838	79.60935	-228.91127	32.95846	-67.58488	239.33867	37.17129	-58.75909	224.75964	534.57843	34.56891	-205.17819	532.09680	25.80141	266.10678	96.20333	108.11197	-254.80394	93.97491	98.64537	-122.50857	1590.28760	39.98500	-200.54077	1255.89160	21.24817	-206.09523	998.87109	-71.75523	-182.28006	906.16913	-99.92790	180.40155	1574.81995	26.21450	254.11411	1241.12720	-12.21037	212.07184	988.44116	-107.72092	189.63121	892.94373	-89.52247	12.80839	1110.03455	49.01359	11.84480	1230.54688	38.75207	13.38374	1318.19434	57.25244	18.57634	1421.96399	100.38394	30.19912	1583.70642	98.08687	0.00000	0.00000	0.00000	67.90147	1111.75281	51.04112	10.88797	1164.86084	54.73247	10.97118	1104.25171	103.83598	183.64919	1096.17236	-79.90887	-146.90932	1085.86279	-92.07404	56.93279	1075.04370	80.09772	-31.21616	1072.29443	76.85368	216.58203	793.72498	36.34235	-188.82285	790.85138	28.15346	235.99265	336.03070	39.49115	-225.05139	267.04584	32.06272	254.03209	28.24295	-142.23071	-240.23196	30.35146	-152.01340	206.08519	16.16640	135.40848	-206.29863	14.11525	128.32751	7.22571	1.77361	4.93816	6.46173	7.13577	8.94698	-0.00365	-0.28285	-0.14582	-0.12864	-1.03600	-0.04512	-0.01774	2.83567	-2.16871	0.63865	0.72287	3.86652
27	0.43333	-81.66760	1002.12823	12.60789	115.18629	1008.03497	19.56923	-150.74063	526.82538	19.17358	169.74130	530.87695	27.99383	-203.04831	89.14923	70.15549	214.06348	92.42426	79.86390	-229.42076	33.04503	-67.71496	238.75676	37.05139	-58.61185	224.35545	534.41046	34.66198	-205.24245	531.99640	25.69040	266.10242	96.11012	108.33453	-255.02594	93.97169	98.56824	-122.34309	1590.36035	40.23292	-200.68896	1256.04358	21.38999	-206.81784	998.95624	-71.39236	-182.98384	906.27765	-99.62597	180.66272	1574.72876	25.92663	254.02150	1240.93713	-12.31542	212.19373	988.11511	-107.55979	189.38632	892.69397	-89.41733	12.45549	1109.97485	48.79093	11.63008	1230.44861	38.48890	13.32322	1318.05823	56.97907	18.76322	1421.77295	100.12130	30.60954	1583.46338	97.86542	0.00000	0.00000	0.00000	67.55342	1111.62805	50.73935	10.60933	1164.80774	54.47081	10.68876	1104.23584	103.62025	183.09712	1095.80847	-80.36211	-147.49046	1085.88892	-92.05266	56.58149	1074.95435	79.83934	-31.57520	1072.30908	76.72186	216.12498	793.55695	36.17852	-189.13611	790.76550	28.15226	235.74994	335.90210	39.65803	-225.24930	267.04276	31.96177	253.10658	28.18270	-142.14963	-240.93477	30.56041	-152.12103	206.30856	16.02687	135.68988	-206.30759	14.03326	128.12277	7.23154	1.85498	4.96809	6.40567	7.01225	8.92136	0.03988	-0.25350	-0.12438	-0.14330	-0.94582	-0.03970	-0.04501	2.64108	-2.20551	0.60442	0.79480	3.74551
28	0.45000	-81.80375	1002.20618	12.31973	115.05030	1008.10046	19.28813	-150.90652	526.91052	19.09463	169.82877	530.97180	27.92751	-203.04260	89.20294	69.98213	214.27486	92.54694	79.92632	-229.60458	33.20138	-67.89362	238.72935	37.11892	-58.56976	224.43224	534.53418	34.66747	-205.40366	532.08765	25.64568	266.26651	96.26422	108.47916	-255.00201	93.99131	98.43397	-122.26633	1590.40076	40.29604	-200.86491	1256.13306	21.63579	-207.47046	998.96228	-70.88225	-184.00343	906.20618	-99.16864	180.54776	1574.66052	25.92409	253.87428	1240.86768	-12.36938	212.04982	987.94708	-107.35302	189.55348	892.42200	-89.37010	12.32101	1110.00000	48.65552	11.50590	1230.53442	38.46783	13.21767	1318.18396	57.01543	18.69298	1421.93567	100.19251	30.60290	1583.67297	97.95463	0.00000	0.00000	0.00000	67.41898	1111.64978	50.60592	10.47560	1164.82471	54.41341	10.55458	1104.18298	103.47662	182.96159	1096.01514	-80.51866	-147.62624	1086.11658	-92.22107	56.44678	1074.93481	79.65376	-31.70998	1072.29517	76.53313	216.07227	793.67712	36.09591	-189.27713	790.85651	28.00785	235.91060	336.02966	39.72265	-225.32588	267.10110	31.85800	252.94102	28.27924	-142.13423	-241.23518	30.80958	-152.28636	206.59145	16.17125	135.79184	-206.20790	14.04177	127.89597	7.32856	1.88587	5.04264	6.50586	7.01172	8.96183	0.04814	-0.25613	-0.10914	-0.10962	-0.97195	-0.03361	-0.03686	2.46191	-2.24177	0.57969	0.83646	3.75054
29	0.46667	-81.69025	1002.35443	12.01266	115.12757	1008.16333	19.99996	-150.94543	527.08496	19.05487	169.54446	530.98431	28.11970	-202.96512	89.35464	69.86618	214.04834	92.53751	79.88312	-229.52756	33.41520	-68.03468	238.79214	37.17602	-58.58813	224.12125	534.49860	35.09676	-205.44499	532.28339	25.56874	265.91141	96.27067	108.66678	-254.94574	94.11586	98.28375	-122.27643	1590.50671	40.11007	-200.93907	1256.23706	21.75998	-207.89392	998.92993	-70.35239	-185.35022	905.94476	-98.63760	180.60422	1574.60608	25.83938	253.73166	1240.76794	-12.43957	212.05281	987.70593	-107.11010	189.49405	892.14246	-89.41139	12.29421	1110.13074	48.76089	11.58558	1230.60925	38.47635	13.24601	1318.22278	56.96260	18.57987	1421.95459	100.08325	30.51501	1583.64014	97.77489	0.00000	0.00000	0.00000	67.38204	1111.75659	50.99648	10.44426	1164.96045	54.47031	10.24019	1104.35352	103.57617	183.59732	1095.97595	-79.51466	-146.92969	1086.22070	-92.92819	56.24203	1075.06726	80.01288	-31.89850	1072.46594	76.43594	215.93149	793.64453	36.89808	-189.23923	791.04858	27.77204	235.70113	336.07355	40.01318	-225.28395	267.24872	31.74381	253.18547	28.40493	-142.12871	-241.09499	31.10173	-152.43829	206.21933	16.13438	135.69086	-206.30537	14.19295	127.76952	7.19821	1.86919	4.99140	6.49623	7.00105	9.22368	0.02334	-0.17623	-0.10132	-0.07147	-1.01435	-0.03360	-0.01018	2.33921	-2.29003	0.56248	0.83793	3.87101
30	0.48333	-82.09923	1002.52649	12.18962	114.73958	1008.30066	19.66901	-151.17618	527.22754	18.99479	169.86264	531.20508	27.93198	-202.74458	89.45145	69.87174	214.26158	92.77209	79.90256	-229.74994	33.56391	-67.96415	238.51010	37.21835	-58.57932	224.44865	534.80194	34.79385	-205.65685	532.40167	25.68363	266.18289	96.51210	108.58012	-254.63969	94.16778	98.45263	-122.21169	1590.59937	39.95405	-200.93094	1256.34229	21.61464	-208.21475	998.85339	-69.96259	-186.47903	905.65204	-98.16856	180.64621	1574.58716	25.74625	253.58568	1240.70764	-12.53048	211.99088	987.51331	-106.88383	189.65178	891.85400	-89.42587	11.99797	1110.27795	48.72159	11.29364	1230.74915	38.46482	13.02906	1318.34851	56.96415	18.49634	1422.06055	100.09089	30.55525	1583.72705	97.78288	0.00000	0.00000	0.00000	67.09167	1111.89417	50.81501	10.17194	1165.10645	54.44957	10.08486	1104.48730	103.54056	182.96619	1096.12695	-80.00044	-147.59604	1086.42993	-92.56099	56.02069	1075.19934	79.85093	-32.12925	1072.61353	76.50145	215.88821	793.93677	36.47302	-189.52917	791.17010	28.08305	235.95042	336.27094	39.82528	-225.30115	267.33893	31.85844	252.63852	28.38152	-142.15817	-241.51265	31.30036	-152.34213	206.49576	16.44363	135.82118	-206.12044	14.30078	127.78734	7.23247	1.96293	5.02147	6.45848	6.97366	9.25274	0.00171	-0.28438	-0.09978	-0.11532	-1.02850	-0.03787	0.02130	2.27945	-2.33728	0.55228	0.79689	4.03984
31	0.50000	-82.33434	1002.63983	12.22544	114.51696	1008.35956	19.41229	-151.23526	527.31531	19.02462	169.62282	531.26294	27.72948	-202.70734	89.53592	69.97076	214.14474	92.89764	80.16308	-229.65286	33.62320	-67.86664	238.29196	37.11404	-58.24412	224.20984	534.85858	34.58395	-205.71822	532.46924	25.71045	266.07040	96.69487	108.82529	-254.60768	94.24554	98.54325	-122.03960	1590.56580	39.60745	-201.03098	1256.37134	21.29562	-208.51201	998.74072	-69.86672	-186.99829	905.41473	-97.82988	180.75938	1574.36047	25.65270	253.65984	1240.47437	-12.64074	211.99323	987.24695	-106.87346	189.81006	891.59735	-89.16547	11.84631	1110.35876	48.63809	11.16489	1230.80823	38.39463	12.95405	1318.38257	56.89596	18.50074	1422.06897	100.01656	30.65924	1583.70471	97.69135	0.00000	0.00000	0.00000	66.94352	1111.95972	50.64964	10.04362	1165.18665	54.37952	10.01342	1104.55786	103.45871	182.61850	1096.18701	-80.34161	-147.96472	1086.58154	-92.41089	55.90596	1075.26221	79.69484	-32.24957	1072.70068	76.47637	215.65955	793.99396	36.23096	-189.68672	791.24353	28.11193	235.76294	336.35861	39.81887	-225.30051	267.41135	31.92302	252.37286	28.18619	-141.82135	-241.28972	31.36419	-152.26219	206.36491	16.66100	136.20491	-206.36909	14.43511	127.93365	7.25173	1.97527	5.09934	6.47657	6.93676	9.16415	-0.04978	-0.26075	-0.10751	-0.12408	-1.01954	-0.04374	0.05527	2.26030	-2.37968	0.55382	0.72503	4.20918
